{
  "title": "The.Lazarus.Effect.2015.720p.HC.WEBRip.XviD.MP3-RARBG",
  "uid": 11920979,
  "size": 2056607935,
  "categoryP": "video",
  "categoryS": "movies",
  "magnet": "?xt=urn:btih:7f6366e3340865a57264d8107ead66fa11fd25d4&amp;dn=The.Lazarus.Effect.2015.720p.HC.WEBRip.XviD.MP3-RARBG&amp;tr=udp%3A%2F%2Ftracker.openbittorrent.com%3A80&amp;tr=udp%3A%2F%2Fopen.demonii.com%3A1337&amp;tr=udp%3A%2F%2Ftracker.coppersurfer.tk%3A6969&amp;tr=udp%3A%2F%2Fexodus.desync.com%3A6969",
  "seeders": 138,
  "leechers": 13,
  "uploader": "vickey1992",
  "files": 4,
  "time": 1431633505,
  "description": "Format                                   : AVI\nFormat/Info                              : Audio Video Interleave\nFile size                                : 1.91 GiB\nDuration                                 : 1h 19mn\nOverall bit rate                         : 3 442 Kbps\nMovie name                               : RARBG.COM - The.Lazarus.Effect.2015.720p.HC.WEBRip.XviD.MP3-RARBG\nWriting library                          : VirtualDub build 35491/release\nComment                                  : RARBG.COM - The.Lazarus.Effect.2015.720p.HC.WEBRip.XviD.MP3-RARBG\n\nVideo\nID                                       : 0\nFormat                                   : MPEG-4 Visual\nFormat profile                           : Simple@L5\nFormat settings, BVOP                    : No\nFormat settings, QPel                    : No\nFormat settings, GMC                     : No warppoints\nFormat settings, Matrix                  : Default (H.263)\nCodec ID                                 : XVID\nCodec ID/Hint                            : XviD\nDuration                                 : 1h 19mn\nBit rate                                 : 3 237 Kbps\nWidth                                    : 1 280 pixels\nHeight                                   : 720 pixels\nDisplay aspect ratio                     : 16:9\nFrame rate                               : 25.000 fps\nColor space                              : YUV\nChroma subsampling                       : 4:2:0\nBit depth                                : 8 bits\nScan type                                : Progressive\nCompression mode                         : Lossy\nBits/(Pixel*Frame)                       : 0.140\nStream size                              : 1.80 GiB (94%)\nWriting library                          : Lavc56.20.100\n\nAudio\nID                                       : 1\nFormat                                   : MPEG Audio\nFormat version                           : Version 1\nFormat profile                           : Layer 3\nMode                                     : Joint stereo\nCodec ID                                 : 55\nCodec ID/Hint                            : MP3\nDuration                                 : 1h 19mn\nBit rate mode                            : Constant\nBit rate                                 : 192 Kbps\nChannel(s)                               : 2 channels\nSampling rate                            : 48.0 KHz\nCompression mode                         : Lossy\nStream size                              : 109 MiB (6%)\nAlignment                                : Aligned on interleaves\nInterleave, duration                     : 24 ms (0.60 video frame)\nInterleave, preload duration             : 504 ms\nNotes:\nGreetz to all!",
  "parsed": {
    "xt": "urn:btih:7f6366e3340865a57264d8107ead66fa11fd25d4",
    "dn": "The.Lazarus.Effect.2015.720p.HC.WEBRip.XviD.MP3-RARBG",
    "tr": [
      "udp://exodus.desync.com:6969",
      "udp://open.demonii.com:1337",
      "udp://tracker.coppersurfer.tk:6969",
      "udp://tracker.openbittorrent.com:80"
    ],
    "infoHash": "7f6366e3340865a57264d8107ead66fa11fd25d4",
    "infoHashBuffer": {
      "type": "Buffer",
      "data": [
        127,
        99,
        102,
        227,
        52,
        8,
        101,
        165,
        114,
        100,
        216,
        16,
        126,
        173,
        102,
        250,
        17,
        253,
        37,
        212
      ]
    },
    "name": "The.Lazarus.Effect.2015.720p.HC.WEBRip.XviD.MP3-RARBG",
    "announce": [
      "udp://exodus.desync.com:6969",
      "udp://open.demonii.com:1337",
      "udp://tracker.coppersurfer.tk:6969",
      "udp://tracker.openbittorrent.com:80"
    ],
    "urlList": []
  },
  "previous": 151,
  "peers": 10,
  "last_updated": "2016-12-25T05:58:23.252Z"
}